<?xml version="1.0" encoding="UTF-8"?>
<!DOCTYPE svg PUBLIC "-//W3C//DTD SVG 1.1//EN" "http://www.w3.org/Graphics/SVG/1.1/DTD/svg11.dtd">
<!-- Creator: CorelDRAW 2018 (64-Bit) -->
<svg xmlns="http://www.w3.org/2000/svg" xml:space="preserve" version="1.1" style="shape-rendering:geometricPrecision; text-rendering:geometricPrecision; image-rendering:optimizeQuality; fill-rule:evenodd; clip-rule:evenodd"
viewBox="0 0 1539.69 781.75"
 xmlns:xlink="http://www.w3.org/1999/xlink">
 <defs>
  <style type="text/css">
   <![CDATA[
    .fil0 {fill:#FEFEFE}
    .fil1 {fill:black}
   ]]>
  </style>
 </defs>
 <g id="Layer_x0020_1">
  <metadata id="CorelCorpID_0Corel-Layer"/>
  <g id="_2360439990272">
   <path class="fil0" d="M-0 390.9c13.06,19.51 132.05,123.19 150.16,138.1 334.94,275.62 691.39,343.03 1075.43,116.25 60.54,-35.75 113.06,-74.97 166.26,-117.99 28.35,-22.93 130.05,-112.03 147.83,-136.36 -12.63,-18.62 -55.23,-53.67 -73.84,-72.05 -60.87,-60.12 -169.94,-140.46 -242.69,-183.78 -129.29,-76.97 -276.3,-135.06 -469.01,-135.06 -247.55,0 -519.57,161.13 -682.09,320.83 -16.84,16.54 -61.62,54.53 -72.05,70.07z"/>
   <path class="fil1" d="M-0 390.9c13.06,19.51 132.05,123.19 150.16,138.1 334.94,275.62 691.39,343.03 1075.43,116.25 60.54,-35.75 113.06,-74.97 166.26,-117.99 28.35,-22.93 130.05,-112.03 147.83,-136.36 -12.63,-18.62 -55.23,-53.67 -73.84,-72.05 -60.87,-60.12 -169.94,-140.46 -242.69,-183.78 -129.29,-76.97 -276.3,-135.06 -469.01,-135.06 -247.55,0 -519.57,161.13 -682.09,320.83 -16.84,16.54 -61.62,54.53 -72.05,70.07zm136.17 -0.13c0.22,0.19 0.43,0.39 0.65,0.58 24.02,21.58 48.69,43.91 73.61,64.42 304.27,250.38 617.98,313.89 966.95,107.82 54.94,-32.44 105.32,-70.02 154.85,-110.07 24.1,-19.49 47.85,-40.78 70.88,-61.53 0.34,-0.31 0.69,-0.62 1.04,-0.93 -1.71,-1.6 -3.36,-3.18 -4.93,-4.74 -60.66,-59.92 -151.18,-126.07 -224.56,-169.76 -133.54,-79.5 -263.87,-121.72 -420.49,-121.72 -215.93,0 -465.58,146.21 -615.62,293.64 -0.77,0.76 -1.56,1.52 -2.36,2.29z"/>
  </g>
 </g>
</svg>
