<?xml version="1.0" encoding="UTF-8"?>
<!DOCTYPE svg PUBLIC "-//W3C//DTD SVG 1.1//EN" "http://www.w3.org/Graphics/SVG/1.1/DTD/svg11.dtd">
<!-- Creator: CorelDRAW 2018 (64-Bit) -->
<svg xmlns="http://www.w3.org/2000/svg" xml:space="preserve" width="25.8209mm" height="15.0122mm" version="1.1" style="shape-rendering:geometricPrecision; text-rendering:geometricPrecision; image-rendering:optimizeQuality; fill-rule:evenodd; clip-rule:evenodd"
viewBox="0 0 335.76 195.21"
 xmlns:xlink="http://www.w3.org/1999/xlink">
 <defs>
  <style type="text/css">
   <![CDATA[
    .fil0 {fill:#333333}
   ]]>
  </style>
 </defs>
 <g id="Layer_x0020_1">
  <metadata id="CorelCorpID_0Corel-Layer"/>
  <path class="fil0" d="M332.99 147.72c-0.87,-8.61 -2.43,-5.69 -1.57,-16.93 0.7,-9.13 -0.29,-27.37 -1.46,-37.14 -0.23,-1.89 -0.43,-5.19 -1.06,-8.26l-3.31 -12.45c-0.54,-1.82 -0.16,-2.7 -0.7,-4.36 -1.5,-4.56 -2.81,-6.58 -3.32,-12.45 -0.27,-3.05 0.85,-4.81 -1.89,-7.13 -1.31,-1.11 -2.14,-1.33 -3.74,-1.23 -10.29,0.69 -19.1,-4.44 -28.23,-7.89l-5.37 -2.51c-7.84,-3.92 -16.02,-10.9 -23.59,-15.81 -5.06,-3.28 -2.36,-0.49 -4.87,-5.83 -2.48,-5.29 -11.1,-6.93 -16.27,-8.5 -2.53,-0.76 -1.72,-0.99 -3.98,-1.68 -1.14,-0.35 -3.14,-0.5 -3.63,-0.76 -2.09,-1.09 -7.48,-4.47 -9.41,-4.76 -3.83,-0.58 -7,6.85 -9.59,10.32 -1.8,2.42 -3.23,5.65 -3.64,8.83 -0.22,1.71 -1.74,3.48 -2.63,5.16 -8.27,-3.97 -8.47,-1.81 -9.27,0.86 -1.69,5.63 -4.59,10.52 -6.25,16.27 -3.05,10.56 -6.49,6.16 -11.04,12.04 -1.64,2.12 -0.97,2.39 -3.42,3.9 -5.38,3.33 -9.5,0.93 -16.05,7.03 -10.09,9.4 -3.03,2.62 -9.55,5.65 -1.43,0.66 -3.15,2.01 -4.26,3.06 -2.1,2.01 -1.92,2.22 -3.22,4.67 -11.67,0 -10.17,6.25 -14.88,7.64 -4.6,1.36 -6.75,1.85 -9.78,5.42 -1.14,1.35 -2.27,3.88 -3.22,4.66 -1.61,1.31 -2.53,0.56 -4.95,2.37 -3.18,2.38 -6.99,3.65 -9.48,5.71 -2.55,2.1 -1.2,1.6 -4.73,3.15 -5.39,2.38 -10.82,3.14 -15.13,7.39 -1.64,1.62 -16.4,4.41 -18.66,4.98 -11.91,3.03 -25.8,4.05 -37.36,8.24 -6.1,2.21 -4.85,-2.22 -11.16,4.05 -4.74,4.71 -3.68,10.8 -6.22,16.29 -1.07,2.31 -1.69,1.85 -2.68,5.2l-1.44 5.87c-0.73,4.22 -2.36,6.72 -1.86,12.16l1.02 4.62c1.95,5.05 7.38,8.45 12.31,10.21l13.44 4.02c5.09,1.37 11.26,1.47 16.51,2.63 5.72,1.26 34.16,1.33 39.85,0.87 2.59,-0.21 3.66,0.35 5.75,0.84 3.42,0.8 4.45,-0.44 7.03,-0.28 2.33,0.14 3.31,1.06 6.8,1.09 9.62,0.08 90.6,0.66 98.33,-0.28 4.23,-0.52 10.35,0.74 14.86,0.26 11.36,-1.21 24.28,-2.91 36.17,-1.87 7.05,0.61 29.63,1.01 33.07,-1.51 1.48,0.99 29.81,-0.46 33.72,-0.68 8.78,-0.5 17.29,-6.69 16.8,-15.89 -0.1,-9.37 -1.8,-17.8 -2.75,-27.26z"/>
 </g>
</svg>
