<?xml version="1.0" encoding="UTF-8"?>
<!DOCTYPE svg PUBLIC "-//W3C//DTD SVG 1.1//EN" "http://www.w3.org/Graphics/SVG/1.1/DTD/svg11.dtd">
<!-- Creator: CorelDRAW 2018 (64-Bit) -->
<svg xmlns="http://www.w3.org/2000/svg" xml:space="preserve" width="11.5692mm" height="37.3159mm" version="1.1" style="shape-rendering:geometricPrecision; text-rendering:geometricPrecision; image-rendering:optimizeQuality; fill-rule:evenodd; clip-rule:evenodd"
viewBox="0 0 11.67 37.63"
 xmlns:xlink="http://www.w3.org/1999/xlink">
 <defs>
  <style type="text/css">
   <![CDATA[
    .fil0 {fill:#2F5C2F}
   ]]>
  </style>
 </defs>
 <g id="Layer_x0020_1">
  <metadata id="CorelCorpID_0Corel-Layer"/>
  <path class="fil0" d="M7.63 35.26c-0.02,0.13 0.01,0.05 -0.06,0.14 -0,0 -0.08,0.07 -0.11,0.1 -0.42,0.25 -0.55,0.94 -0.23,1.4 0.68,0.95 2.66,0.91 3.75,0.21 0.2,-0.13 0.47,-0.3 0.57,-0.49 0.09,-0.02 0.04,0.03 0.11,-0.07l-1.35 -1.24c-0.78,-0.78 -1.25,-1.9 -2.07,-0.62 -0.11,0.18 -0.06,0.16 -0.22,0.26 -0.4,-0.72 -0.95,-1.79 -1.26,-2.59 0.82,0.02 1.57,-0.12 2.16,-0.45 0.49,-0.27 1.15,-0.89 1.33,-1.4 0.1,-0.06 0.02,0.01 0.06,-0.1 -0.24,-0.16 -0.87,-0.37 -1.19,-0.52 -0.4,-0.19 -0.73,-0.39 -1.09,-0.62 -0.25,-0.16 -0.85,-0.6 -1.18,-0.3 -0.35,0.32 -0.32,0.83 -0.53,1.17 -0.71,-0.3 -0.55,-0.26 -0.84,-1.22 -0.15,-0.5 -0.31,-1.12 -0.41,-1.66l0.03 -0.13c0.56,0.23 1.28,0.37 1.99,0.28 0.56,-0.07 1.33,-0.42 1.62,-0.71l0.1 -0.1c-0.74,-0.68 -1.09,-1.2 -1.65,-1.99 -1.09,-1.52 -1.2,-0.28 -1.92,0.17 -0.26,-0.79 -0.73,0.2 -0.12,-2.76 0.06,-0.3 0.19,-0.7 0.2,-0.98 0.18,0.08 0.01,-0.01 0.11,0.08 0.05,0.05 0.07,0.07 0.1,0.12 0.94,1.17 3.63,0.82 4.21,0.01 0.13,-0.02 0.06,0.03 0.1,-0.1 -1.14,-0.81 -1.91,-2.89 -2.58,-2.67 -0.29,0.09 -0.78,0.63 -0.93,0.87 -0.54,-0.48 -0.36,-0.63 -0.38,-0.81 0.01,-0.01 0.03,-0.04 0.03,-0.03 0.01,0.02 0.36,-0.35 0.45,-0.6 0.13,-0.35 0.04,-0.65 -0.05,-0.95 0.06,-0.41 0.33,-1.33 0.28,-1.71 0.22,-0.05 0.19,0.05 0.45,0.17 0.47,0.23 1.17,0.33 1.7,0.32 0.62,-0 1.74,-0.39 1.94,-0.75 0.14,-0.02 0.05,0.06 0.13,-0.09 -1.05,-1.1 -0.7,-0.64 -1.62,-1.92 -0.58,-0.81 -0.9,-1.27 -1.9,0.12 -0.44,-0.5 -0.64,-0.69 -0.66,-1.24 0.02,-0.31 0.15,-0.36 0.08,-0.73 -0.04,-0.24 -0.14,-0.41 -0.29,-0.59l-0.47 -2.54c0.09,-0.14 -0.09,-0.1 0.2,-0.05 0.06,0.01 0.19,0.05 0.3,0.07 0.54,0.09 1.47,0.01 1.95,-0.15 0.57,-0.19 1.53,-0.8 1.68,-1.18 0.16,-0.07 0.05,0.02 0.15,-0.13 -0.12,-0.15 -0.95,-0.65 -1.15,-0.8 -1.43,-1.08 -2.21,-2.77 -3.16,-0.38 -0.2,-0.1 -0.75,-0.55 -0.83,-0.74 -0.15,-0.35 -0.21,-0.81 -0.37,-1.15l-0.1 -0.25c-0.03,-0.3 -0.44,-1.33 -0.57,-1.64 -0.2,-0.51 -0.47,-1.09 -0.64,-1.6l-0.55 0c0.14,0.42 0.36,0.84 0.53,1.28 0.12,0.3 0.19,0.35 0.06,0.66l-0.21 0.52c-0.01,0.01 -0.01,0.02 -0.02,0.03 -0.06,0.1 -0.03,0.05 -0.06,0.09 -1.44,-1.03 -1.66,-0.73 -2.07,0.46 -0.16,0.46 -0.3,0.93 -0.5,1.36l-0.64 1.28c0.06,0.07 -0,0.03 0.1,0.03 0.05,0.05 0.02,0.03 0.1,0.08l0.49 0.14c0.23,0.05 0.44,0.09 0.66,0.1 0.55,0.04 0.94,-0.06 1.35,-0.19 0.54,-0.18 1.09,-0.44 1.5,-0.82 0.15,-0.14 0.24,-0.3 0.4,-0.41l0.46 1.66c0.03,0.74 -0.09,0.6 0.27,1.21 0.01,0.01 0.01,0.02 0.02,0.03 0.01,0.01 0.01,0.02 0.02,0.04l0.07 0.11c-0.02,0.22 0.19,1.01 0.24,1.29 0.09,0.46 -0.21,0.79 -0.3,1.2 -0.55,-0.23 -1.25,-1.06 -1.66,-0.23 -0.12,0.25 -0.17,0.36 -0.26,0.62 -0.33,1.01 -0.63,1.61 -1.06,2.43l0.12 0.04 0.23 0.11c0.06,0.02 0.17,0.04 0.25,0.06 0.17,0.04 0.34,0.08 0.52,0.09 0.29,0.02 0.93,0.07 1.12,-0.13 0.42,0.01 1.24,-0.49 1.51,-0.71 0.01,0.01 0.03,0 0.04,0.02l0.09 0.06c-0.04,0.29 0.02,0.41 0.03,0.7l-0.05 1.41c-0.06,1.12 -0.29,1.06 -0.76,1.69 -0.08,-0.07 -0.03,-0.01 -0.11,-0.11 -0.03,-0.03 -0.06,-0.08 -0.09,-0.11 -0.2,-0.25 -0.38,-0.54 -0.7,-0.69 -0.7,-0.32 -1.52,1.73 -2.82,2.61 0.04,0.2 -0.01,0.06 0.1,0.11 0.25,0.3 1,0.67 1.5,0.78 0.35,0.08 0.71,0.08 1.09,0.05 0.25,-0.02 0.82,-0.16 0.92,-0.13 -0.16,0.69 -0.35,1.35 -0.52,2.03 -0.25,1 -0.03,0.77 -0.98,1.53 -0.3,-0.31 -0.33,-0.77 -0.77,-1.02 -0.42,-0.25 -0.91,0.35 -1.12,0.55 -0.33,0.32 -0.58,0.6 -0.97,0.89 -0.19,0.14 -0.34,0.26 -0.53,0.4 -0.14,0.11 -0.43,0.29 -0.53,0.4 0.1,0.15 -0.02,0.06 0.15,0.13 0.09,0.22 0.35,0.38 0.54,0.52 0.22,0.16 0.43,0.29 0.69,0.39 0.43,0.17 1.32,0.31 1.87,0.23l0.23 -0.05c0.01,-0 0.03,-0.02 0.04,-0.02 0.01,-0 0.02,-0.01 0.03,-0.02 0.32,0.05 0.52,-0.18 0.79,-0.24l-0.02 0.66c0,0.77 -0.24,0.75 0.16,1.51l0.04 0.07c0,0.01 0.01,0.03 0.02,0.04 -0.05,0.35 0.18,1.03 0.24,1.4 -0.23,0.18 -0.34,0.33 -0.51,0.41 -0.75,-1.17 -0.82,-1.52 -1.92,-0.43 -0.32,0.31 -0.59,0.57 -0.95,0.86 -0.23,0.19 -0.95,0.65 -1.05,0.81l0.13 0.1c0.88,1.15 3.14,1.5 4.1,0.82 0.47,-0.34 0.54,-0.56 0.52,-1.34l0.67 1.84c0.03,0.16 0.06,0.28 0.12,0.42 0.03,0.06 0.05,0.12 0.09,0.17 0.1,0.15 0.03,0.06 0.13,0.14 -0,0.29 0.14,0.22 0.06,0.56 -0.03,0.13 -0.14,0.43 -0.19,0.53 -1.94,-1.27 -1.57,-0.02 -2.28,1.76 -0.16,0.41 -0.37,0.77 -0.53,1.2 0.09,0.08 0.01,0.03 0.15,0.03 0.29,0.33 1.66,0.28 2.36,-0.01 0.48,-0.2 0.96,-0.46 1.3,-0.82 0.15,-0.16 0.16,-0.3 0.38,-0.33 0.14,0.08 0.17,0.19 0.27,0.36zm-3.62 -12.85c0.13,-0.01 0.31,-0.15 0.55,-0.19 -0.01,0.45 0.02,0.74 -0.34,0.45 -0.06,-0.05 -0.09,-0.06 -0.12,-0.09 -0.09,-0.1 -0.04,-0.01 -0.09,-0.17zm1.92 -12.29l-0.04 0.13c-0.07,-0.02 -0.17,-0.02 -0.21,-0.03 -0.27,-0.08 -0.09,0.04 -0.16,-0.16 0.12,-0.08 0.18,-0.23 0.34,-0.35l0.08 0.4zm1.33 3.05l-0.4 0.17c-0,-0.08 -0,-0.15 -0.02,-0.23 -0.02,-0.09 -0.03,-0.07 -0.05,-0.11l0.07 -0.16c0.21,0.11 0.28,0.16 0.4,0.32zm-1.54 6.48l0.16 -0.51c0.17,0.07 0.25,0.14 0.36,0.29l-0.52 0.22zm0.28 10.88l-0.09 -0.38 0.37 0.07c-0.02,0.1 -0.03,0.13 -0.09,0.19 -0.13,0.15 0.01,0.06 -0.19,0.12zm-1.05 -5.97c0.06,0.12 0.16,0.16 0.26,0.23 -0.09,0.14 -0.22,0.18 -0.37,0.21 -0,-0.02 -0.02,-0.27 -0.02,-0.27 0.04,-0.19 -0.06,-0.09 0.13,-0.16zm1.03 -8.01c-0.09,-0.02 -0.15,-0.02 -0.22,-0.07 -0.21,-0.13 -0.08,-0.02 -0.14,-0.18 0.15,-0.05 0.21,-0.15 0.45,-0.24l-0.08 0.48zm0.57 16.58l-0.45 -0c0.02,-0.18 0.12,-0.3 0.26,-0.42l0.18 0.42zm-1.45 -3.7l-0.19 -0.23c-0.06,-0.07 -0.1,-0.13 -0.17,-0.19 -0.24,-0.23 -0.29,-0.14 -0.36,-0.36l0.46 -0.19c0.07,0.14 0.25,0.78 0.26,0.97zm0.37 -23.67l-0.12 -0.57 0.54 0.21c-0.07,0.16 -0.27,0.31 -0.41,0.36zm-1.46 -3.02c-0.07,0.01 -0.19,-0.04 -0.3,-0.06 -0.04,-0.01 -0.14,-0.02 -0.18,-0.03 -0.15,-0.07 -0.06,0.04 -0.14,-0.13 0.11,-0.07 0.2,-0.27 0.37,-0.4 0.13,0.13 0.2,0.43 0.24,0.62z"/>
 </g>
</svg>
